<?xml version="1.0" encoding="UTF-8"?>
<svg id="Layer_2" data-name="Layer 2" xmlns="http://www.w3.org/2000/svg" viewBox="0 0 135.59 121.81">
  <defs>
    <style>
      .cls-1 {
        fill: #adcbe0;
      }

      .cls-1, .cls-2 {
        fill-rule: evenodd;
      }

      .cls-2 {
        fill: #5a94b1;
      }
    </style>
  </defs>
  <g id="Layer_1-2" data-name="Layer 1">
    <g>
      <path class="cls-2" d="M97.02,44.42c3.53,4.17-2.04,7.21-5.02,9.38-3.44,2.51-7.26,4.48-10.86,6.83-24.95,16.25-22.86,21.53-3.75,46.08l11.46,15.09c6.94-1.5,5.02-11.64,4.83-16.98-.26-7.05-.57-14.57-.78-21.75-.08-2.68-.05-2.6,1.66-3.86l9.76-7.2c4.51-3.28,8.21-6.03,12.89-9.59,2.18-1.66,4.34-2.65,5.46-5.62,1.22-3.21-.13-6.63-2.05-8.45-2.02-1.93-12.93-4.53-16.88-5.61-5.58-1.53-12.14-3.2-17.47-5-2.14-.72-2.27-3.44-3.63-7.4l-5.65-16.87c-.83-2.56-1.83-5.99-2.89-8.52-2.55-6.1-10.29-6.7-13.98-1.1-3,4.56-6.14,8.85-9.08,13.42-1.39,2.15-3.72,4.42-3.52,7.57.2,3.18.58,7.08.99,10.53,1.33,11.39,4.2,29.73,18.5,24.05,11.9-4.73,21.86-15.77,30.02-15M61.37,34.97c6.58-1.69,11.98,2.95,13.2,8.17,1.48,6.34-3.33,11.97-7.91,12.98-14.36,3.19-19.29-17.56-5.29-21.15Z"/>
      <path class="cls-1" d="M40.86,31.54l-33.13.26c-4.64.19-8.28,3.72-7.66,8.85.35,2.89,4.54,7.51,6.7,10.24,4.98,6.32,9.77,12.39,14.75,18.83,1.47,1.9.4,3.17-.44,5.71-.72,2.18-1.32,4.22-2.02,6.45-1.4,4.44-2.71,8.58-4.03,12.9-1.03,3.37-3.93,9.73-2.58,13.49,1.58,4.39,5.98,6.03,11.02,4.21,6.11-2.21,6.24-2.11,9.26-7.34,11.53-19.96,10.34-50.19,8.14-73.59"/>
      <path class="cls-2" d="M42.7,105.39c2.9-.78,5.68-2.02,8.37-2.93,1.82-.61,2.41-1.57,4.13-.51.28.17,1.32,1.07,1.67,1.33l15.12,10.49c-1.41-3.33-12.26-17.35-14.41-19.67-3.31-3.57-6.29-6.17-9.85-.89-1.84,2.73-4.28,8.65-5.02,12.18"/>
      <path class="cls-1" d="M131.46,65.3l.4,2.86c.05.32.25.6.54.74l2.57,1.24c.72.35.74,1.36.04,1.74l-2.65,1.44c-.27.15-.46.42-.5.73l-.41,3c-.11.81-1.11,1.13-1.67.55l-1.93-2c-.23-.24-.58-.35-.91-.28l-2.72.57c-.8.17-1.44-.66-1.08-1.39l1.35-2.72c.14-.28.14-.61,0-.88l-1.38-2.68c-.36-.71.23-1.53,1.01-1.42l2.83.42c.32.05.65-.07.87-.31l1.94-2.14c.56-.61,1.58-.3,1.69.52"/>
      <path class="cls-2" d="M106.91,79.2l3.15,3.21c.36.36.87.52,1.37.43l4.37-.82c1.22-.23,2.18,1.02,1.66,2.14l-1.98,4.25c-.2.44-.19.95.04,1.37l2.26,4.15c.61,1.12-.34,2.44-1.59,2.23l-4.27-.73c-.52-.09-1.04.1-1.39.49l-2.88,3.23c-.85.95-2.41.5-2.64-.75l-.82-4.65c-.08-.48-.39-.88-.82-1.1l-4.2-2.09c-1.11-.55-1.13-2.13-.04-2.71l3.93-2.08c.45-.24.75-.68.8-1.19l.46-4.47c.13-1.28,1.7-1.83,2.6-.91"/>
      <path class="cls-2" d="M129.06,86.87l1.76,1.24c.2.14.45.17.68.09l1.99-.76c.55-.21,1.12.29.96.87l-.57,2.17c-.06.22,0,.46.14.64l1.42,1.76c.38.47.05,1.18-.56,1.19l-2.07.02c-.25,0-.48.13-.61.35l-1.08,1.77c-.32.52-1.09.44-1.3-.13l-.78-2.12c-.08-.22-.26-.38-.48-.45l-2.15-.62c-.57-.16-.71-.9-.25-1.27l1.67-1.32c.19-.15.29-.39.27-.63l-.17-2.14c-.05-.62.64-1.01,1.15-.65"/>
    </g>
  </g>
</svg>